<svg xmlns="http://www.w3.org/2000/svg" viewBox="0 0 552.72 204.97"><defs><style>.cls-1{fill:#f8993e;}.cls-2{fill:#fff;}.cls-3{fill:#d7df27;}.cls-4{fill:#f1602c;}.cls-5{fill:#fafcf8;}.cls-6{fill:#ea257d;}.cls-7{fill:#26abe2;}.cls-8{fill:#854092;}.cls-9{fill:#00a79d;}.cls-10{fill:#03a797;}.cls-11{fill:#b7d04f;}.cls-12{fill:#231f20;}</style></defs><g id="Layer_2" data-name="Layer 2"><g id="Layer_2-2" data-name="Layer 2"><path class="cls-1" d="M4.8,140.34c7.37,2.13,9.56,6,7.74,10.06s-1.87,7,2.41,7.94L17,159.55s-6.59,6.44-1.6,8.16,6.38,3.34,5,7.3-3.48,15.18,9.05,13.4c0,0,5.82-1.15,16.37-2.7,8.94-1.31,13.2,7.88,15.73,18.51a7.37,7.37,0,0,0,.23.71c16.79.31,42.52-1.23,62.64-11.32-6.42-11-8.93-22.78-3.85-32.73,5.8-16.5,18.29-27.73,19.24-58.34C142.93,15.8,5.65,17.78,14.56,100.73c0,0,1.25,10.23-8.23,23.68C-1,134.79-2.56,138.21,4.8,140.34Z"/><circle class="cls-2" cx="91.97" cy="100.65" r="22.01" transform="translate(-36.47 146.38) rotate(-67.18)"/><circle class="cls-3" cx="107.58" cy="138.37" r="16.18"/><circle class="cls-4" cx="70.58" cy="63.63" r="7.74" transform="translate(-18.92 31.68) rotate(-22.39)"/><path class="cls-5" d="M85.88,41.59a6.71,6.71,0,1,1-6.71-6.7A6.7,6.7,0,0,1,85.88,41.59Z"/><path class="cls-5" d="M52.69,56.59a3.84,3.84,0,1,1-3.84-3.84A3.84,3.84,0,0,1,52.69,56.59Z"/><path class="cls-5" d="M93.74,161.12A1.77,1.77,0,1,1,92,159.35,1.76,1.76,0,0,1,93.74,161.12Z"/><circle class="cls-5" cx="69.96" cy="138.37" r="6.83"/><circle class="cls-3" cx="137.31" cy="100.65" r="9.17" transform="translate(7.7 211.04) rotate(-76.66)"/><path class="cls-3" d="M127.79,26.69a7.08,7.08,0,1,1-7.07-7.08A7.07,7.07,0,0,1,127.79,26.69Z"/><circle class="cls-6" cx="97.3" cy="8.12" r="8.12"/><circle class="cls-4" cx="113.98" cy="59.93" r="16.69" transform="translate(-14.14 46.97) rotate(-21.96)"/><circle class="cls-7" cx="173.81" cy="108.94" r="8.3" transform="translate(-26.13 154.81) rotate(-45)"/><path class="cls-7" d="M52.69,31.49a4.15,4.15,0,1,1-4.15-4.15A4.15,4.15,0,0,1,52.69,31.49Z"/><path class="cls-8" d="M169.07,70.21a8.87,8.87,0,1,1-8.87-8.86A8.87,8.87,0,0,1,169.07,70.21Z"/><path class="cls-9" d="M151.51,21.46a5.23,5.23,0,1,1-5.23-5.23A5.23,5.23,0,0,1,151.51,21.46Z"/><path class="cls-4" d="M176.23,34.42a3.58,3.58,0,1,1-3.58-3.58A3.58,3.58,0,0,1,176.23,34.42Z"/><circle class="cls-10" cx="191.14" cy="70.21" r="3.58"/><circle class="cls-4" cx="146.28" cy="80.69" r="3.58"/><path class="cls-7" d="M185.68,145.19a3.58,3.58,0,1,1-3.57-3.57A3.57,3.57,0,0,1,185.68,145.19Z"/><path class="cls-4" d="M197.11,107.77a2.39,2.39,0,1,1-2.39-2.39A2.39,2.39,0,0,1,197.11,107.77Z"/><path class="cls-4" d="M146.46,46.37A2.39,2.39,0,1,1,144.07,44,2.39,2.39,0,0,1,146.46,46.37Z"/><path class="cls-11" d="M81.57,18.62a2.39,2.39,0,1,1-2.39-2.39A2.39,2.39,0,0,1,81.57,18.62Z"/><circle class="cls-9" cx="154.03" cy="154.49" r="11.63"/><path class="cls-4" d="M156.66,117.24a6.8,6.8,0,1,1-6.8-6.79A6.8,6.8,0,0,1,156.66,117.24Z"/><circle class="cls-7" cx="128.09" cy="168.49" r="6.71"/><circle class="cls-3" cx="50.34" cy="92.03" r="12.5"/><path class="cls-12" d="M227.75,112.15V87.38h4.86v24.77Z"/><path class="cls-12" d="M237,112.15V87.38h20.84c6,0,7.78,2,7.78,8v8.71c0,6.08-1.77,8-7.78,8Zm23.76-16.7c0-2.45-.79-3.17-2.92-3.17H241.9v15h15.94c2.2,0,2.92-.69,2.92-3.13Z"/><path class="cls-12" d="M269.83,112.15V87.38h23.8v4.9H274.69v5.47h18.4v4h-18.4v5.55h18.94v4.86Z"/><path class="cls-12" d="M322.35,112.15l-3.09-5.76H304.32l-3.09,5.76h-5.55l13.57-24.77h5.08l13.57,24.77ZM311.81,92.24l-5.62,10.26h11.23Z"/><path class="cls-12" d="M346.48,102.28v9.87h-4.86V87.38h23.25v4.9H346.48V98h18v4.31Z"/><path class="cls-12" d="M376.07,112.15c-6,0-7.74-2-7.74-8V95.41c0-6.08,1.73-8,7.74-8h13.06c5.91,0,7.74,2,7.74,8v8.71c0,6.08-1.83,8-7.74,8ZM392,95.45c0-2.45-.75-3.17-2.91-3.17h-13c-2.16,0-2.92.72-2.92,3.17v8.71c0,2.44.69,3.13,2.92,3.13h13c2.23,0,2.91-.69,2.91-3.13Z"/><path class="cls-12" d="M408.58,112.15c-5.51,0-7.46-2.23-7.46-7.85V87.38H406V104.3c0,2.09.72,3,2.63,3h12.09c1.91,0,2.63-.9,2.63-3V87.38h4.86V104.3c0,5.62-2,7.85-7.49,7.85Z"/><path class="cls-12" d="M454.47,112.15,437,93.9v18.25h-4.65V87.38h5.22l17,17.93V87.38h4.68v24.77Z"/><path class="cls-12" d="M463.44,112.15V87.38h20.84c6,0,7.78,2,7.78,8v8.71c0,6.08-1.77,8-7.78,8Zm23.76-16.7c0-2.45-.8-3.17-2.92-3.17H468.34v15h15.94c2.2,0,2.92-.69,2.92-3.13Z"/><path class="cls-12" d="M517.51,112.15l-8.57-8.1h-7.81v8.1h-4.89V87.38h20.23c5.25,0,7.09,2.05,7.09,7.67v1.51c0,6-2.27,7.42-8.39,7.42l9.18,8.17Zm1.22-16.27c0-2.41-.29-3.57-2.41-3.57H501.13V100h15.19c1.73,0,2.41-.75,2.41-2.91Z"/><path class="cls-12" d="M535.91,112.15V103L524.24,87.38h5.62L538.5,99l8.57-11.59h5.65l-12,15.66v9.11Z"/><path class="cls-12" d="M246.29,135.92l-1.85-11.34h1.72l1.43,10,5.44-10h1.64l1.21,10,5.67-10h1.7l-6.69,11.34h-1.83l-1.22-9.79-5.35,9.79Z"/><path class="cls-12" d="M266,135.92c-2.21,0-3.51-.82-3.51-2.77a5.07,5.07,0,0,1,.15-1.22l.71-3.36c.61-2.84,2.44-4,5.06-4H272c2.21,0,3.49.82,3.49,2.73a7.66,7.66,0,0,1-.15,1.26l-.5,2.45H264.33l-.21.91a3.07,3.07,0,0,0-.11.86c0,1.59,1.37,1.8,3.26,1.8h6.59l-.46,1.33Zm-1.41-6h9l.25-1.16a4.52,4.52,0,0,0,.1-1c0-1.28-.73-1.81-2.22-1.81h-3.63a2.94,2.94,0,0,0-3.26,2.65Z"/><path class="cls-12" d="M290.91,135.92l1.64-7.69a3.73,3.73,0,0,0,.08-.77c0-1.08-.67-1.54-2.26-1.54h-1.43a2.86,2.86,0,0,0-2.69,1.72l-1.76,8.28H283l2.41-11.34h1.43l-.42,1.93a3.64,3.64,0,0,1,3.42-1.93h.82c2.31,0,3.38.65,3.4,2.37.68-1.64,2-2.37,4.06-2.37h.94c2.39,0,3.3.86,3.3,2.62a10.27,10.27,0,0,1-.23,1.91l-1.45,6.81h-1.49l1.4-6.58a7.24,7.24,0,0,0,.19-1.55c0-1.2-.52-1.87-2.14-1.87h-1.45c-2,0-2.87.8-3.19,2.31l-1.64,7.69Z"/><path class="cls-12" d="M306.68,135.92c-2.16,0-3-.59-3-1.91a4.64,4.64,0,0,1,.1-.86l.21-1c.38-1.87,1.62-2.65,4.06-2.65h4.26a3.6,3.6,0,0,1,2.52.61l.42-1.93a4.34,4.34,0,0,0,.08-.67c0-1-.73-1.56-2.66-1.56h-6.51l.44-1.34h6.53c2.89,0,3.73,1.07,3.73,2.52a4.9,4.9,0,0,1-.12,1.05L315,135.92c-.4,0-.71-.49-.71-1.31a3.91,3.91,0,0,1,.08-.79,3.85,3.85,0,0,1-3.55,2.1Zm4.48-1.33a3.27,3.27,0,0,0,3.08-1.91l.3-1.42c-.4-.4-1-.61-2.52-.61H308.3c-1.7,0-2.56.27-2.9,1.82l0,.23a2.91,2.91,0,0,0-.08.68c0,.84.52,1.21,1.68,1.21Z"/><path class="cls-12" d="M328,135.92l-4.6-4.77-3.71,2.65-.45,2.12h-1.51l3.19-15,1.64-.52-2.52,11.82,10.5-7.6h1.93l-7.91,5.71,5.46,5.63Z"/><path class="cls-12" d="M335.22,135.92c-2.2,0-3.5-.82-3.5-2.77a5.57,5.57,0,0,1,.14-1.22l.72-3.36c.61-2.84,2.43-4,5.06-4h3.63c2.2,0,3.49.82,3.49,2.73a7.66,7.66,0,0,1-.15,1.26L344.1,131H333.59l-.22.91a3.45,3.45,0,0,0-.1.86c0,1.59,1.36,1.8,3.25,1.8h6.6l-.46,1.33Zm-1.4-6h9l.26-1.16a4.52,4.52,0,0,0,.1-1c0-1.28-.73-1.81-2.22-1.81h-3.64a2.94,2.94,0,0,0-3.25,2.65Z"/><path class="cls-12" d="M352.38,135.92l2.41-11.34h1.52l-2.42,11.34Zm2.6-12.33.63-3h1.58l-.63,3Z"/><path class="cls-12" d="M361,135.92c-2.5,0-3.49-.91-3.49-2.77a8.79,8.79,0,0,1,.21-1.77l.49-2.27c.65-3.06,2-4.53,5.2-4.53h2.54c2,0,2.69.46,3,1.93l1.19-5.63,1.62-.5-3.3,15.54c-.46,0-.71-.49-.71-1.24a4.58,4.58,0,0,1,.08-.86,3.94,3.94,0,0,1-3.84,2.1Zm3.65-1.33a3.15,3.15,0,0,0,3-1.8l1.1-5.15c-.15-1.23-.76-1.72-2.23-1.72h-3.38c-2.2,0-3,1.12-3.46,3.47l-.38,1.74a7.25,7.25,0,0,0-.21,1.62c0,1.36.67,1.84,2.2,1.84Z"/><path class="cls-12" d="M375.44,135.92c-2.21,0-3.51-.82-3.51-2.77a5.07,5.07,0,0,1,.15-1.22l.71-3.36c.61-2.84,2.44-4,5.06-4h3.63c2.21,0,3.49.82,3.49,2.73a6.71,6.71,0,0,1-.15,1.26l-.5,2.45H373.8l-.21.91a3.49,3.49,0,0,0-.11.86c0,1.59,1.37,1.8,3.26,1.8h6.59l-.46,1.33Zm-1.41-6h9l.25-1.16a4.59,4.59,0,0,0,.11-1c0-1.28-.74-1.81-2.23-1.81h-3.63a2.94,2.94,0,0,0-3.26,2.65Z"/><path class="cls-12" d="M389.23,135.92c-2.16,0-3-.59-3-1.91a4.64,4.64,0,0,1,.1-.86l.22-1c.37-1.87,1.61-2.65,4.05-2.65h4.26a3.6,3.6,0,0,1,2.52.61l.42-1.93a4.34,4.34,0,0,0,.08-.67c0-1-.73-1.56-2.66-1.56h-6.51l.44-1.34h6.53c2.9,0,3.74,1.07,3.74,2.52a4.94,4.94,0,0,1-.13,1.05l-1.66,7.77c-.4,0-.71-.49-.71-1.31a3.91,3.91,0,0,1,.08-.79,3.85,3.85,0,0,1-3.55,2.1Zm4.48-1.33a3.27,3.27,0,0,0,3.08-1.91l.3-1.42c-.4-.4-1-.61-2.52-.61h-3.72c-1.7,0-2.56.27-2.9,1.82l0,.23a2.91,2.91,0,0,0-.08.68c0,.84.52,1.21,1.68,1.21Z"/><path class="cls-12" d="M413.36,125.92h-6.89c-1.86,0-2.66.15-3,1.66l-.08.42a2.7,2.7,0,0,0-.08.63c0,.78.5,1,1.68,1h4.61c2,0,3.09.5,3.09,1.83a4.57,4.57,0,0,1-.08.69l-.25,1.22c-.42,2-1.75,2.54-4.22,2.54h-8.26l.47-1.33h8.06c1.34,0,2.14-.27,2.43-1.57l.13-.55a3,3,0,0,0,.06-.54c0-.86-.59-1.14-1.68-1.14h-4.62c-2.1,0-3.06-.44-3.06-1.74a3.89,3.89,0,0,1,.08-.78l.25-1.15c.45-2,1.68-2.54,4.18-2.54h7.67Z"/><path class="cls-12" d="M420.76,135.92l2.41-11.34h1.51l-2.41,11.34Zm2.6-12.33.63-3h1.57l-.63,3Z"/><path class="cls-12" d="M435.45,135.92l1.49-7a6.52,6.52,0,0,0,.15-1.2c0-1.24-.63-1.85-2.2-1.85h-3.74a2.75,2.75,0,0,0-2.71,1.74l-1.76,8.28h-1.51l2.41-11.34H429l-.42,1.93a3.59,3.59,0,0,1,3.42-1.93h3.15c2.48,0,3.44.9,3.44,2.75a8.14,8.14,0,0,1-.21,1.78L437,135.92Z"/><path class="cls-12" d="M442.32,125.73h-1.49l.44-1.15h1.3l.57-2.73,1.6-.48-.68,3.21h2.86l-.44,1.15h-2.67L442.7,131a7.79,7.79,0,0,0-.21,1.73c0,1.38.59,2.09,1.89,2.09a2.58,2.58,0,0,0,1.39-.33l-.51,1.34a4.11,4.11,0,0,1-1.57.3c-1.91,0-2.75-1-2.75-2.9a10.26,10.26,0,0,1,.27-2.23Z"/><path class="cls-12" d="M451.5,135.92c-2.42,0-3.53-.78-3.53-2.61a6.64,6.64,0,0,1,.17-1.38l.71-3.36c.59-2.79,2.1-4,5.06-4h3.64c2.41,0,3.5.8,3.5,2.58a7,7,0,0,1-.17,1.41l-.71,3.36c-.61,2.81-2.08,4-5,4Zm3.3-1.33c2.2,0,3.42-.48,3.88-2.66l.71-3.36a4.68,4.68,0,0,0,.11-.93c0-1.23-.78-1.72-2.25-1.72h-3c-2.19,0-3.4.51-3.87,2.65l-.71,3.36a4.18,4.18,0,0,0-.1.94c0,1.26.77,1.72,2.22,1.72Z"/><path class="cls-12" d="M476.78,126.28a2.35,2.35,0,0,0-1.8-.48,3.31,3.31,0,0,0-3.09,1.84l-1.76,8.28h-1.52L471,124.58h1.45l-.38,1.74a4,4,0,0,1,3.48-1.83,3.23,3.23,0,0,1,1.73.4Z"/><path class="cls-12" d="M480.92,135.92c-2.21,0-3.51-.82-3.51-2.77a5.07,5.07,0,0,1,.15-1.22l.71-3.36c.61-2.84,2.44-4,5.06-4H487c2.2,0,3.48.82,3.48,2.73a6.71,6.71,0,0,1-.15,1.26l-.5,2.45H479.28l-.21.91a3.45,3.45,0,0,0-.1.86c0,1.59,1.36,1.8,3.25,1.8h6.59l-.46,1.33Zm-1.41-6h9l.25-1.16a4,4,0,0,0,.11-1c0-1.28-.74-1.81-2.23-1.81H483a2.94,2.94,0,0,0-3.26,2.65Z"/><path class="cls-12" d="M494.72,135.92c-2.17,0-3.05-.59-3.05-1.91a4,4,0,0,1,.11-.86l.21-1c.37-1.87,1.61-2.65,4.05-2.65h4.26a3.6,3.6,0,0,1,2.52.61l.42-1.93a4.34,4.34,0,0,0,.08-.67c0-1-.73-1.56-2.66-1.56h-6.51l.44-1.34h6.53c2.9,0,3.74,1.07,3.74,2.52a4.94,4.94,0,0,1-.13,1.05l-1.66,7.77c-.4,0-.71-.49-.71-1.31a3.91,3.91,0,0,1,.08-.79,3.84,3.84,0,0,1-3.55,2.1Zm4.47-1.33a3.27,3.27,0,0,0,3.08-1.91l.3-1.42c-.4-.4-1-.61-2.52-.61h-3.72c-1.7,0-2.56.27-2.89,1.82l-.05.23a2.91,2.91,0,0,0-.08.68c0,.84.52,1.21,1.68,1.21Z"/><path class="cls-12" d="M505.81,135.92l3.19-15,1.63-.52-3.31,15.56Z"/><path class="cls-12" d="M510.21,135.92l2.42-11.34h1.51l-2.41,11.34Zm2.61-12.33.63-3H515l-.63,3Z"/><path class="cls-12" d="M517.23,125.73h-1.49l.44-1.15h1.3l.57-2.73,1.59-.48-.67,3.21h2.86l-.44,1.15h-2.67L517.61,131a7.79,7.79,0,0,0-.21,1.73c0,1.38.58,2.09,1.89,2.09a2.57,2.57,0,0,0,1.38-.33l-.5,1.34a4.18,4.18,0,0,1-1.58.3c-1.91,0-2.75-1-2.75-2.9a10.92,10.92,0,0,1,.27-2.23Z"/><path class="cls-12" d="M525.29,124.58l3,10.08,6.93-10.08h1.64L529,135.66c-1.43,2-3,3.53-5.46,3.53a5.6,5.6,0,0,1-2.46-.46l1-1.43a4,4,0,0,0,5.12-1.4l-3.59-11.32Z"/></g></g></svg>